<svg width="28" height="28" viewBox="0 0 28 28" fill="none" xmlns="http://www.w3.org/2000/svg">
<path fill-rule="evenodd" clip-rule="evenodd" d="M0.753906 13.9996C0.753906 6.6842 6.6842 0.753906 13.9996 0.753906C21.3149 0.753906 27.2453 6.6842 27.2453 13.9996C27.2453 21.3148 21.3149 27.2452 13.9996 27.2452C6.6842 27.2452 0.753906 21.3148 0.753906 13.9996ZM13.9996 2.6539C7.73354 2.6539 2.6539 7.73354 2.6539 13.9996C2.6539 16.9437 3.77536 19.626 5.61442 21.6424C7.38136 18.8822 10.4762 17.0498 14.0003 17.0498C17.524 17.0498 20.6185 18.8818 22.3857 21.6414C24.2241 19.6252 25.3453 16.9433 25.3453 13.9996C25.3453 7.73354 20.2655 2.6539 13.9996 2.6539ZM20.9635 22.9572C19.5677 20.5588 16.9713 18.9498 14.0003 18.9498C11.029 18.9498 8.43236 20.5592 7.03678 22.958C8.95892 24.4542 11.3752 25.3452 13.9996 25.3452C16.6244 25.3452 19.0411 24.4538 20.9635 22.9572ZM9.29986 12.0096C9.29986 9.41382 11.4041 7.30956 13.9999 7.30956C16.5956 7.30956 18.6999 9.41382 18.6999 12.0096C18.6999 14.6053 16.5956 16.7096 13.9999 16.7096C11.4041 16.7096 9.29986 14.6053 9.29986 12.0096ZM13.9999 9.20956C12.4535 9.20956 11.1999 10.4632 11.1999 12.0096C11.1999 13.556 12.4535 14.8096 13.9999 14.8096C15.5463 14.8096 16.7999 13.556 16.7999 12.0096C16.7999 10.4632 15.5463 9.20956 13.9999 9.20956Z" fill="black"/>
</svg>
